Coordinates
version=1
nRows=27
nColumns=38
inDegrees=no

Units are S.I. units (second, meters, Newtons, ...)
If the header above contains a line with 'inDegrees', this indicates whether rotational values are in degrees (yes) or radians (no).

endheader
time	pelvis_tilt	pelvis_list	pelvis_rotation	pelvis_tx	pelvis_ty	pelvis_tz	hip_flexion_r	hip_adduction_r	hip_rotation_r	knee_angle_r	ankle_angle_r	subtalar_angle_r	mtp_angle_r	hip_flexion_l	hip_adduction_l	hip_rotation_l	knee_angle_l	ankle_angle_l	subtalar_angle_l	mtp_angle_l	lumbar_extension	lumbar_bending	lumbar_rotation	arm_flex_r	arm_add_r	arm_rot_r	elbow_flex_r	pro_sup_r	wrist_flex_r	wrist_dev_r	arm_flex_l	arm_add_l	arm_rot_l	elbow_flex_l	pro_sup_l	wrist_flex_l	wrist_dev_l
22.23	2.64538	1.46109	-0.979489	0.674967	-0.215185	0.949538	-0.0723608	0.0252729	0.000125043	0.210605	-0.277686	0	0	-0.0337125	-0.082366	-0.0147207	0.300751	-0.20841	0	0	-0.487624	0.0264699	0.146077	0.446661	-0.649734	-0.193486	1.74002	1.5708	0	0	0.875982	-0.223636	0.504625	1.33373	1.5708	0	0
22.24	2.63002	1.46334	-0.965572	0.674943	-0.215309	0.949455	-0.0690422	0.0250065	0.00156612	0.210394	-0.278292	0	0	-0.0311526	-0.082032	-0.0142415	0.299792	-0.208859	0	0	-0.48626	0.0269084	0.153725	0.429408	-0.649799	-0.217279	1.7567	1.5708	0	0	0.863317	-0.2221	0.4991	1.34365	1.5708	0	0
22.25	2.61471	1.46618	-0.951582	0.674904	-0.215421	0.94928	-0.0649735	0.0245173	0.00277838	0.210935	-0.27868	0	0	-0.0279168	-0.0812681	-0.0137756	0.299259	-0.209258	0	0	-0.48474	0.0276425	0.161892	0.409361	-0.648838	-0.244536	1.77691	1.5708	0	0	0.847883	-0.220072	0.491284	1.35559	1.5708	0	0
22.26	2.60281	1.46839	-0.940904	0.674851	-0.215537	0.949144	-0.061619	0.0239649	0.00379633	0.211463	-0.278879	0	0	-0.0254546	-0.0805412	-0.0135427	0.298914	-0.209339	0	0	-0.483363	0.0286059	0.168904	0.38915	-0.647496	-0.270413	1.79735	1.5708	0	0	0.830622	-0.220488	0.483729	1.36897	1.5708	0	0
22.27	2.58912	1.47022	-0.928391	0.674773	-0.215665	0.949018	-0.0583629	0.0236348	0.00503326	0.212086	-0.279277	0	0	-0.0230917	-0.0801553	-0.0134897	0.298761	-0.209352	0	0	-0.482423	0.0302649	0.176361	0.365791	-0.64513	-0.299922	1.82087	1.5708	0	0	0.811337	-0.221021	0.474883	1.38319	1.5708	0	0
22.28	2.57965	1.47082	-0.919767	0.674642	-0.215828	0.948984	-0.0565712	0.0237667	0.00568333	0.212648	-0.279839	0	0	-0.0219145	-0.0801943	-0.0136874	0.298709	-0.209437	0	0	-0.482559	0.032613	0.18303	0.341287	-0.641706	-0.329949	1.84432	1.5708	0	0	0.79065	-0.223275	0.465956	1.39758	1.5708	0	0
22.29	2.57617	1.47117	-0.916947	0.674501	-0.215983	0.948939	-0.055296	0.0236708	0.00611491	0.213587	-0.280074	0	0	-0.0211758	-0.0799536	-0.0143389	0.299062	-0.209344	0	0	-0.483187	0.0348399	0.188946	0.315701	-0.637176	-0.361347	1.86797	1.5708	0	0	0.768843	-0.227242	0.457155	1.41253	1.5708	0	0
22.3	2.57607	1.47117	-0.917267	0.674323	-0.216128	0.948925	-0.0545661	0.0234622	0.0065018	0.214587	-0.279994	0	0	-0.0208012	-0.0797096	-0.0154335	0.299733	-0.209218	0	0	-0.484097	0.0373139	0.194326	0.288271	-0.632559	-0.393897	1.89235	1.5708	0	0	0.746311	-0.232282	0.448823	1.42687	1.5708	0	0
22.31	2.57741	1.47078	-0.918607	0.674078	-0.216289	0.948957	-0.0544233	0.0233142	0.00670858	0.215336	-0.27998	0	0	-0.0207537	-0.0795602	-0.0161646	0.300391	-0.209119	0	0	-0.485262	0.0404179	0.19917	0.25921	-0.627824	-0.426758	1.91685	1.5708	0	0	0.722657	-0.238373	0.441024	1.4407	1.5708	0	0
22.32	2.58107	1.46999	-0.921885	0.673766	-0.216476	0.949016	-0.0549363	0.0231529	0.0067458	0.215847	-0.279997	0	0	-0.0211666	-0.079427	-0.0166204	0.300873	-0.209105	0	0	-0.486508	0.0439819	0.202493	0.230306	-0.622981	-0.456544	1.93935	1.5708	0	0	0.697919	-0.24635	0.433691	1.45357	1.5708	0	0
22.33	2.58725	1.46893	-0.9273	0.673397	-0.216701	0.949081	-0.0559354	0.0229215	0.00667074	0.216439	-0.279879	0	0	-0.0218819	-0.0792893	-0.0171071	0.301462	-0.209113	0	0	-0.488403	0.0478121	0.204474	0.20176	-0.617235	-0.484146	1.96018	1.5708	0	0	0.672188	-0.255395	0.425807	1.46505	1.5708	0	0
22.34	2.59526	1.46772	-0.934198	0.672997	-0.216941	0.94915	-0.0573177	0.0226536	0.00618264	0.216853	-0.279706	0	0	-0.0228423	-0.0791644	-0.0176388	0.302006	-0.209123	0	0	-0.491039	0.0518342	0.204846	0.17405	-0.610299	-0.50952	1.97916	1.5708	0	0	0.645298	-0.264853	0.416904	1.4743	1.5708	0	0
22.35	2.46563	1.4799	-0.805765	0.672255	-0.21635	0.948428	-0.0383966	0.0236066	0.0105155	0.218302	-0.281472	0	0	-0.00462856	-0.0797706	-0.0167522	0.30205	-0.20995	0	0	-0.471239	0.0595612	0.208791	0.135558	-0.602072	-0.536231	1.99677	1.5708	0	0	0.61984	-0.292955	0.380729	1.52293	1.5708	0	0
22.36	2.56076	1.47205	-0.898292	0.672335	-0.217142	0.948672	-0.0502392	0.022316	0.00813392	0.220145	-0.279066	0	0	-0.0153168	-0.0790743	-0.0187367	0.304882	-0.208676	0	0	-0.487519	0.0603915	0.197735	0.124301	-0.593413	-0.543114	2.00639	1.5708	0	0	0.580765	-0.286473	0.388988	1.49225	1.5708	0	0
22.37	2.58772	1.46819	-0.923079	0.671865	-0.217302	0.948956	-0.0564115	0.0223839	0.00481684	0.217851	-0.278076	0	0	-0.0202855	-0.0793354	-0.0203054	0.304459	-0.208221	0	0	-0.493564	0.0654492	0.193443	0.101161	-0.584434	-0.5577	2.01515	1.5708	0	0	0.554885	-0.300043	0.383703	1.49288	1.5708	0	0
22.38	2.5863	1.46768	-0.920361	0.671375	-0.217364	0.948965	-0.0575285	0.0224867	0.00392331	0.215839	-0.278792	0	0	-0.0206256	-0.0795448	-0.0213174	0.304039	-0.208415	0	0	-0.499039	0.070583	0.180895	0.0876756	-0.574184	-0.558645	2.02084	1.5708	0	0	0.518426	-0.318534	0.365279	1.50467	1.5708	0	0
22.39	2.54536	1.47192	-0.878811	0.67086	-0.217161	0.948644	-0.051527	0.022635	0.00514947	0.215518	-0.280245	0	0	-0.0142514	-0.0797075	-0.0215687	0.304411	-0.208552	0	0	-0.504554	0.0767688	0.146403	0.10101	-0.561813	-0.52441	2.01864	1.5708	0	0	0.452719	-0.343952	0.307892	1.54235	1.5708	0	0
22.4	2.45569	1.48021	-0.789077	0.670303	-0.216677	0.948025	-0.0387383	0.0228133	0.00762105	0.216935	-0.280231	0	0	-0.00153844	-0.0797658	-0.0210956	0.305349	-0.208168	0	0	-0.514234	0.0854293	0.0838043	0.147638	-0.545294	-0.44889	2.00985	1.5708	0	0	0.347209	-0.373687	0.199052	1.61321	1.5708	0	0
22.41	2.36857	1.48644	-0.7016	0.669806	-0.216209	0.94749	-0.0283953	0.0229179	0.00953407	0.217749	-0.28025	0	0	0.00885228	-0.0798342	-0.0205383	0.305924	-0.207909	0	0	-0.522002	0.0935993	0.0373404	0.171705	-0.530014	-0.397283	2.00189	1.5708	0	0	0.25999	-0.389721	0.117302	1.65476	1.5708	0	0
22.42	2.32725	1.48823	-0.659877	0.669399	-0.215903	0.947307	-0.0249892	0.023318	0.0109405	0.217207	-0.280405	0	0	0.012299	-0.0804164	-0.0212479	0.305325	-0.207858	0	0	-0.526096	0.100027	0.0218702	0.159326	-0.519896	-0.387265	1.99639	1.5708	0	0	0.214606	-0.39729	0.0929958	1.65045	1.5708	0	0
22.43	2.29795	1.48905	-0.629661	0.668933	-0.215662	0.947165	-0.0230422	0.0236698	0.0112188	0.216869	-0.280625	0	0	0.0144436	-0.0809407	-0.0211783	0.305054	-0.207607	0	0	-0.52544	0.104257	0.00876748	0.143917	-0.511936	-0.375366	1.97897	1.5708	0	0	0.176392	-0.401057	0.0774067	1.63191	1.5708	0	0
22.44	2.27134	1.48985	-0.601686	0.668407	-0.215358	0.947023	-0.0215986	0.0238507	0.010789	0.216209	-0.280747	0	0	0.0162593	-0.0811369	-0.0204617	0.304427	-0.207307	0	0	-0.52015	0.107469	-0.000666085	0.124459	-0.506168	-0.363977	1.95374	1.5708	0	0	0.147536	-0.403259	0.0745477	1.59996	1.5708	0	0
22.45	2.25213	1.49052	-0.581023	0.667883	-0.215035	0.946884	-0.0207777	0.0236588	0.0110614	0.215677	-0.280451	0	0	0.0174878	-0.0810007	-0.0197501	0.303961	-0.206873	0	0	-0.512957	0.109789	-0.00545612	0.101045	-0.501322	-0.356056	1.92459	1.5708	0	0	0.128433	-0.405981	0.0853002	1.55825	1.5708	0	0
22.46	2.23585	1.49103	-0.563661	0.667412	-0.21469	0.946733	-0.0202137	0.0234708	0.0123171	0.215154	-0.280155	0	0	0.0183897	-0.0808911	-0.0194179	0.303777	-0.206114	0	0	-0.503743	0.111515	-0.00580204	0.0751262	-0.497289	-0.350192	1.8913	1.5708	0	0	0.118304	-0.410168	0.10934	1.50837	1.5708	0	0
22.47	2.24453	1.48997	-0.571459	0.666988	-0.214379	0.946745	-0.0222731	0.023485	0.0124636	0.214524	-0.28019	0	0	0.0165438	-0.0811787	-0.0199629	0.303716	-0.205367	0	0	-0.496855	0.113218	-0.0043777	0.050821	-0.492687	-0.343758	1.85504	1.5708	0	0	0.112825	-0.4139	0.138144	1.45648	1.5708	0	0
22.48	2.27122	1.48787	-0.596847	0.666536	-0.214016	0.946831	-0.0264112	0.0236149	0.0110709	0.213743	-0.280173	0	0	0.0125895	-0.0815346	-0.0205249	0.303373	-0.204723	0	0	-0.490879	0.115281	-0.00333108	0.0297758	-0.487531	-0.333874	1.8146	1.5708	0	0	0.110142	-0.417947	0.170564	1.40376	1.5708	0	0
22.49	2.3141	1.48462	-0.637737	0.66598	-0.213607	0.94698	-0.0327462	0.0236147	0.00810935	0.212628	-0.280133	0	0	0.00671297	-0.0818555	-0.0211507	0.303016	-0.203686	0	0	-0.485822	0.117738	-0.00299115	0.0121254	-0.482018	-0.32116	1.76986	1.5708	0	0	0.109584	-0.421802	0.205507	1.35141	1.5708	0	0
